<svg width="512" height="512" viewBox="0 0 512 512" fill="none" xmlns="http://www.w3.org/2000/svg">
  <rect width="512" height="512" rx="132" fill="#100C1E"/>
  <rect x="68" y="68" width="376" height="376" rx="112" fill="url(#paint0_radial)" stroke="#FFFFFF" stroke-opacity="0.12"/>
  <circle cx="256" cy="256" r="52" fill="url(#paint1_radial)"/>
  <path d="M160 256C160 203.6 203.6 160 256 160" stroke="#FF7F6C" stroke-width="26" stroke-linecap="round"/>
  <path d="M352 256C352 308.4 308.4 352 256 352" stroke="#5AC8FF" stroke-width="26" stroke-linecap="round"/>
  <path d="M256 352C203.6 352 160 308.4 160 256" stroke="#D4FF6D" stroke-width="26" stroke-linecap="round"/>
  <path d="M256 160C308.4 160 352 203.6 352 256" stroke="#8F7DFF" stroke-width="26" stroke-linecap="round"/>
  <circle cx="256" cy="160" r="13" fill="#F7F4FF"/>
  <circle cx="352" cy="256" r="13" fill="#F7F4FF"/>
  <circle cx="256" cy="352" r="13" fill="#F7F4FF"/>
  <circle cx="160" cy="256" r="13" fill="#F7F4FF"/>
  <defs>
    <radialGradient id="paint0_radial" cx="0" cy="0" r="1" gradientUnits="userSpaceOnUse" gradientTransform="translate(256 256) rotate(90) scale(188)">
      <stop stop-color="#1A1430"/>
      <stop offset="1" stop-color="#120E23"/>
    </radialGradient>
    <radialGradient id="paint1_radial" cx="0" cy="0" r="1" gradientUnits="userSpaceOnUse" gradientTransform="translate(256 256) rotate(90) scale(52)">
      <stop stop-color="#FFF2B3"/>
      <stop offset="0.55" stop-color="#FF8C72"/>
      <stop offset="1" stop-color="#D24298"/>
    </radialGradient>
  </defs>
</svg>
